ply
format ascii 1.0
comment Created by Blender3D 249 - www.blender.org, source file: 
element vertex 507
property float x
property float y
property float z
property float nx
property float ny
property float nz
element face 500
property list uchar uint vertex_indices
end_header
1.066808 -0.378677 1.597090 0.987976 -0.010102 0.154088 
1.035558 -0.456802 1.604902 0.722587 -0.669759 0.171026 
1.098058 -0.527115 1.526777 0.601306 -0.478561 0.639790 
1.160558 -0.378677 1.511152 0.782739 -0.003113 0.622303 
0.098058 -0.527115 1.526777 -0.601306 -0.478561 0.639790 
0.160558 -0.456802 1.604902 -0.722587 -0.669759 0.171026 
0.129308 -0.378677 1.597090 -0.987976 -0.010102 0.154088 
0.035558 -0.378677 1.511152 -0.782739 -0.003113 0.622303 
1.144933 -0.566177 1.417402 0.657216 -0.579058 0.482406 
1.223058 -0.378677 1.401777 0.868435 -0.004364 0.495773 
0.051183 -0.566177 1.417402 -0.657216 -0.579058 0.482406 
-0.026942 -0.378677 1.401777 -0.868435 -0.004364 0.495773 
0.949621 -0.589615 1.558027 0.114994 -0.722190 0.682028 
0.949621 -0.644302 1.456465 0.077670 -0.870296 0.486343 
0.246496 -0.644302 1.456465 -0.077670 -0.870296 0.486343 
0.246496 -0.589615 1.558027 -0.114994 -0.722190 0.682028 
0.949621 -0.488052 1.620527 0.023530 -0.972900 0.229926 
0.246496 -0.488052 1.620527 -0.023530 -0.972900 0.229926 
0.871496 -0.456802 1.636152 -0.662374 -0.691763 0.287545 
0.801183 -0.527115 1.581465 -0.431898 -0.519486 0.737236 
0.394933 -0.527115 1.581465 0.431898 -0.519486 0.737236 
0.324621 -0.456802 1.636152 0.662374 -0.691763 0.287545 
0.754308 -0.566177 1.487715 -0.557054 -0.629994 0.541093 
0.441808 -0.566177 1.487715 0.557054 -0.629994 0.541093 
0.738683 -0.378677 1.581465 -0.661702 -0.003235 0.749718 
0.676183 -0.378677 1.495527 -0.814814 -0.004639 0.579699 
0.519933 -0.378677 1.495527 0.814814 -0.004639 0.579699 
0.457433 -0.378677 1.581465 0.661702 -0.003235 0.749718 
0.840246 -0.378677 1.636152 -0.956328 -0.010956 0.292062 
0.355871 -0.378677 1.636152 0.956328 -0.010956 0.292062 
0.871496 -0.292740 1.636152 -0.671163 0.687918 0.276162 
0.801183 -0.230240 1.581465 -0.429914 0.514573 0.741844 
0.394933 -0.230240 1.581465 0.429914 0.514573 0.741844 
0.324621 -0.292740 1.636152 0.671163 0.687918 0.276162 
0.754308 -0.183365 1.487715 -0.545335 0.612018 0.572710 
0.441808 -0.183365 1.487715 0.545335 0.612018 0.572710 
0.949621 -0.167740 1.558027 0.115513 0.716453 0.687948 
0.949621 -0.105240 1.456465 0.086001 0.840602 0.534745 
0.246496 -0.105240 1.456465 -0.086001 0.840602 0.534745 
0.246496 -0.167740 1.558027 -0.115513 0.716453 0.687948 
0.949621 -0.261490 1.620527 0.019715 0.977477 0.210089 
0.246496 -0.261490 1.620527 -0.019715 0.977477 0.210089 
1.035558 -0.292740 1.604902 0.728233 0.666128 0.160955 
1.098058 -0.230240 1.526777 0.601123 0.473678 0.643605 
0.098058 -0.230240 1.526777 -0.601123 0.473678 0.643605 
0.160558 -0.292740 1.604902 -0.728233 0.666128 0.160955 
1.144933 -0.183365 1.417402 0.653920 0.559496 0.509201 
0.051183 -0.183365 1.417402 -0.653920 0.559496 0.509201 
1.043371 -0.284927 1.620527 0.731864 0.581988 0.354411 
1.074621 -0.378677 1.612715 0.942412 -0.012391 0.334178 
0.152746 -0.284927 1.620527 -0.731864 0.581988 0.354411 
0.121496 -0.378677 1.612715 -0.942412 -0.012391 0.334178 
0.949621 -0.245865 1.643965 0.086215 0.899411 0.428480 
0.246496 -0.245865 1.643965 -0.086215 0.899411 0.428480 
0.863683 -0.284927 1.659590 -0.585681 0.630634 0.509140 
0.332433 -0.284927 1.659590 0.585681 0.630634 0.509140 
0.824621 -0.378677 1.659590 -0.855861 -0.013886 0.516953 
0.371496 -0.378677 1.659590 0.855861 -0.013886 0.516953 
0.863683 -0.464615 1.659590 -0.577105 -0.642933 0.503525 
0.332433 -0.464615 1.659590 0.577105 -0.642933 0.503525 
0.949621 -0.503677 1.643965 0.084780 -0.902005 0.423261 
0.246496 -0.503677 1.643965 -0.084780 -0.902005 0.423261 
1.043371 -0.464615 1.620527 0.723075 -0.595386 0.350169 
0.152746 -0.464615 1.620527 -0.723075 -0.595386 0.350169 
0.949621 -0.378677 1.667402 0.189764 -0.003571 0.981811 
0.246496 -0.378677 1.667402 -0.189764 -0.003571 0.981811 
0.777746 -1.589615 1.393965 0.152806 -0.976196 0.153874 
0.762121 -1.550552 1.472090 0.153172 -0.764061 0.626667 
0.598058 -1.566177 1.479902 0.000000 -0.790765 0.612079 
0.598058 -1.605240 1.417402 0.000000 -0.982116 0.188147 
0.433996 -1.550552 1.472090 -0.153172 -0.764061 0.626667 
0.418371 -1.589615 1.393965 -0.152806 -0.976196 0.153874 
0.926183 -1.566177 1.362715 0.622059 -0.756493 0.201727 
0.832433 -1.534927 1.472090 0.345653 -0.570208 0.745201 
0.363683 -1.534927 1.472090 -0.345653 -0.570208 0.745201 
0.269933 -1.566177 1.362715 -0.622059 -0.756493 0.201727 
0.965246 -1.511490 1.370527 0.972228 -0.105045 0.209113 
0.863683 -1.441177 1.503340 0.521104 -0.236183 0.820124 
0.332433 -1.441177 1.503340 -0.521104 -0.236183 0.820124 
0.230871 -1.511490 1.370527 -0.972228 -0.105045 0.209113 
0.949621 -1.316177 1.409590 0.981689 0.098209 0.163152 
0.848058 -1.323990 1.526777 0.569689 -0.030732 0.821284 
0.348058 -1.323990 1.526777 -0.569689 -0.030732 0.821284 
0.246496 -1.316177 1.409590 -0.981689 0.098209 0.163152 
0.910558 -1.058365 1.409590 0.959136 0.242775 0.145268 
0.808996 -1.066177 1.550215 0.584613 0.110233 0.803766 
0.387121 -1.066177 1.550215 -0.584613 0.110233 0.803766 
0.285558 -1.058365 1.409590 -0.959136 0.242775 0.145268 
0.801183 -0.808365 1.401777 0.887234 -0.449416 0.103977 
1.035558 -0.761490 1.370527 0.370678 -0.926145 0.069582 
0.996496 -0.667740 1.511152 0.385968 -0.463973 0.797296 
0.723058 -0.722427 1.651777 0.183203 -0.202307 0.962004 
0.199621 -0.667740 1.511152 -0.385968 -0.463973 0.797296 
0.160558 -0.761490 1.370527 -0.370678 -0.926145 0.069582 
0.394933 -0.808365 1.401777 -0.887234 -0.449416 0.103977 
0.473058 -0.722427 1.651777 -0.183203 -0.202307 0.962004 
1.230871 -0.659927 1.378340 0.602344 -0.790857 0.108097 
1.215246 -0.566177 1.464277 0.465285 -0.402997 0.788079 
-0.019129 -0.566177 1.464277 -0.465285 -0.402997 0.788079 
-0.034754 -0.659927 1.378340 -0.602344 -0.790857 0.108097 
1.426183 -0.472427 1.284590 0.889431 -0.445601 0.101535 
1.324621 -0.417740 1.440840 0.518754 -0.304361 0.798883 
-0.128504 -0.417740 1.440840 -0.518754 -0.304361 0.798883 
-0.230067 -0.472427 1.284590 -0.889431 -0.445601 0.101535 
1.457433 -0.191177 1.433027 0.886013 0.399396 0.235359 
1.340246 -0.245865 1.495527 0.424543 -0.214423 0.879635 
-0.144129 -0.245865 1.495527 -0.424543 -0.214423 0.879635 
-0.261317 -0.191177 1.433027 -0.886013 0.399396 0.235359 
1.308996 -0.136490 1.464277 0.506607 0.835017 0.214637 
1.285558 -0.206802 1.565840 0.330638 -0.067354 0.941343 
-0.089442 -0.206802 1.565840 -0.330638 -0.067354 0.941343 
-0.112879 -0.136490 1.464277 -0.506607 0.835017 0.214637 
1.090246 -0.019302 1.526777 0.590136 0.791589 0.158391 
1.035558 -0.073990 1.636152 0.326182 -0.009033 0.945250 
0.160558 -0.073990 1.636152 -0.326182 -0.009033 0.945250 
0.105871 -0.019302 1.526777 -0.590136 0.791589 0.158391 
0.918371 0.136948 1.573652 0.304239 0.930296 0.204779 
0.910558 0.019760 1.675215 0.225379 0.056307 0.972625 
0.285558 0.019760 1.675215 -0.225379 0.056307 0.972625 
0.277746 0.136948 1.573652 -0.304239 0.930296 0.204779 
0.754308 0.097885 1.597090 -0.632191 0.751671 0.187872 
0.801183 -0.003677 1.690840 -0.003998 0.040407 0.999146 
0.394933 -0.003677 1.690840 0.003998 0.040407 0.999146 
0.441808 0.097885 1.597090 0.632191 0.751671 0.187872 
0.660558 -0.128677 1.589277 -0.783776 0.597674 0.168676 
0.699621 -0.191177 1.683027 -0.136662 0.018342 0.990417 
0.496496 -0.191177 1.683027 0.136662 0.018342 0.990417 
0.535558 -0.128677 1.589277 0.783776 0.597674 0.168676 
0.598058 -0.191177 1.581465 0.000000 0.970092 0.242714 
0.598058 -0.269302 1.659590 0.000000 -0.052767 0.998596 
0.762121 -0.206802 1.612715 0.195318 -0.148320 0.969451 
0.848058 -0.152115 1.597090 0.249855 -0.069094 0.965789 
0.348058 -0.152115 1.597090 -0.249855 -0.069094 0.965789 
0.433996 -0.206802 1.612715 -0.195318 -0.148320 0.969451 
0.926183 -0.144302 1.581465 0.165838 -0.008484 0.986114 
0.269933 -0.144302 1.581465 -0.165838 -0.008484 0.986114 
1.027746 -0.183365 1.558027 0.189398 -0.005219 0.981872 
0.168371 -0.183365 1.558027 -0.189398 -0.005219 0.981872 
1.199621 -0.245865 1.503340 0.310984 -0.166540 0.935697 
-0.003504 -0.245865 1.503340 -0.310984 -0.166540 0.935697 
1.238683 -0.323990 1.487715 0.387616 -0.201270 0.899564 
-0.042567 -0.323990 1.487715 -0.387616 -0.201270 0.899564 
1.223058 -0.433365 1.487715 0.458663 -0.230628 0.858119 
-0.026942 -0.433365 1.487715 -0.458663 -0.230628 0.858119 
1.090246 -0.558365 1.511152 0.434614 -0.380993 0.816034 
0.105871 -0.558365 1.511152 -0.434614 -0.380993 0.816034 
0.973058 -0.605240 1.542402 0.268868 -0.433882 0.859890 
0.223058 -0.605240 1.542402 -0.268868 -0.433882 0.859890 
0.801183 -0.527115 1.581465 -0.139805 -0.269326 0.952818 
0.394933 -0.527115 1.581465 0.139805 -0.269326 0.952818 
0.762121 -0.480240 1.589277 -0.327006 -0.184149 0.926878 
0.598058 -0.573990 1.565840 0.000000 -0.031190 0.999512 
0.433996 -0.480240 1.589277 0.327006 -0.184149 0.926878 
0.723058 -0.316177 1.604902 -0.002930 -0.183660 0.982971 
0.473058 -0.316177 1.604902 0.002930 -0.183660 0.982971 
0.598058 -0.409927 1.604902 0.000000 -0.223151 0.974761 
0.730871 -0.409927 1.597090 -0.182928 -0.199255 0.962706 
0.465246 -0.409927 1.597090 0.182928 -0.199255 0.962706 
0.660558 -1.503677 1.534590 -0.030854 -0.322977 0.945891 
0.598058 -1.511490 1.526777 0.000000 -0.284494 0.958647 
0.535558 -1.503677 1.534590 0.030854 -0.322977 0.945891 
0.715246 -1.456802 1.550215 0.019715 -0.300668 0.953520 
0.480871 -1.456802 1.550215 -0.019715 -0.300668 0.953520 
0.707433 -1.339615 1.573652 0.149632 -0.263649 0.952910 
0.488683 -1.339615 1.573652 -0.149632 -0.263649 0.952910 
0.676183 -1.066177 1.589277 0.149754 0.003906 0.988708 
0.715246 -1.308365 1.573652 0.159825 -0.056490 0.985504 
0.480871 -1.308365 1.573652 -0.159825 -0.056490 0.985504 
0.519933 -1.066177 1.589277 -0.149754 0.003906 0.988708 
0.683996 -0.909927 1.581465 0.503586 -0.379254 0.776208 
0.598058 -0.948990 1.581465 0.000000 -0.558824 0.829249 
0.598058 -1.066177 1.589277 0.000000 -0.004089 0.999969 
0.512121 -0.909927 1.581465 -0.503586 -0.379254 0.776208 
0.598058 -1.300552 1.573652 0.000000 -0.032838 0.999451 
0.598058 -1.386490 1.573652 0.000000 -0.354869 0.934904 
0.723058 -0.847427 1.589277 0.747917 -0.343333 0.568072 
0.730871 -0.847427 1.636152 0.925962 -0.243446 0.288552 
0.691808 -0.894302 1.620527 0.520737 -0.745781 0.415448 
0.504308 -0.894302 1.620527 -0.520737 -0.745781 0.415448 
0.465246 -0.847427 1.636152 -0.925962 -0.243446 0.288552 
0.473058 -0.847427 1.589277 -0.747917 -0.343333 0.568072 
0.699621 -0.769302 1.581465 0.282846 0.414136 0.865108 
0.707433 -0.753677 1.620527 0.637928 0.746513 0.189001 
0.488683 -0.753677 1.620527 -0.637928 0.746513 0.189001 
0.496496 -0.769302 1.581465 -0.282846 0.414136 0.865108 
0.598058 -0.761490 1.581465 0.000000 0.818537 0.574419 
0.637121 -0.745865 1.620527 -0.431745 0.848659 0.305490 
0.558996 -0.745865 1.620527 0.431745 0.848659 0.305490 
0.598058 -0.816177 1.589277 0.000000 0.759239 0.650777 
0.598058 -0.808365 1.636152 0.000000 0.782128 0.623066 
0.598058 -0.941177 1.620527 0.000000 -0.827143 0.561968 
0.676183 -0.870865 1.643965 0.243599 -0.579913 0.777367 
0.598058 -0.909927 1.643965 0.000000 -0.502182 0.864742 
0.519933 -0.870865 1.643965 -0.243599 -0.579913 0.777367 
0.598058 -0.823990 1.667402 0.000000 0.180975 0.983459 
0.644933 -0.769302 1.651777 -0.189642 0.612110 0.767663 
0.551183 -0.769302 1.651777 0.189642 0.612110 0.767663 
0.691808 -0.777115 1.651777 0.338633 0.488479 0.804132 
0.504308 -0.777115 1.651777 -0.338633 0.488479 0.804132 
0.707433 -0.847427 1.667402 0.366924 -0.176977 0.913236 
0.488683 -0.847427 1.667402 -0.366924 -0.176977 0.913236 
0.762121 -0.863052 1.550215 0.632679 -0.046083 0.773003 
0.433996 -0.863052 1.550215 -0.632679 -0.046083 0.773003 
0.777746 -0.933365 1.550215 0.655019 0.129673 0.744377 
0.418371 -0.933365 1.550215 -0.655019 0.129673 0.744377 
0.855871 -0.933365 1.393965 0.938231 0.321360 0.128025 
0.340246 -0.933365 1.393965 -0.938231 0.321360 0.128025 
0.832433 -0.870865 1.393965 0.953887 0.275491 0.119144 
0.363683 -0.870865 1.393965 -0.953887 0.275491 0.119144 
0.598058 -1.394302 1.558027 0.000000 -0.885037 0.465438 
0.691808 -1.363052 1.565840 -0.237892 -0.684866 0.688711 
0.504308 -1.363052 1.565840 0.237892 -0.684866 0.688711 
0.691808 -1.441177 1.550215 -0.711051 0.136143 0.689810 
0.504308 -1.441177 1.550215 0.711051 0.136143 0.689810 
0.644933 -1.488052 1.526777 -0.386242 0.552995 0.738212 
0.551183 -1.488052 1.526777 0.386242 0.552995 0.738212 
0.598058 -1.495865 1.526777 0.000000 0.676138 0.736747 
0.644933 -1.472427 1.472090 -0.264840 0.390210 0.881771 
0.598058 -1.480240 1.472090 0.000000 0.469314 0.882992 
0.551183 -1.472427 1.472090 0.264840 0.390210 0.881771 
0.691808 -1.433365 1.479902 -0.811975 0.187750 0.552629 
0.504308 -1.433365 1.479902 0.811975 0.187750 0.552629 
0.691808 -1.370865 1.503340 -0.202979 -0.609577 0.766259 
0.504308 -1.370865 1.503340 0.202979 -0.609577 0.766259 
0.598058 -1.402115 1.495527 0.000000 -0.757225 0.653127 
0.785558 -0.464615 1.612715 0.072481 -0.038026 0.996612 
0.769933 -0.402115 1.620527 0.234504 -0.090915 0.967834 
0.410558 -0.464615 1.612715 -0.072481 -0.038026 0.996612 
0.426183 -0.402115 1.620527 -0.234504 -0.090915 0.967834 
0.777746 -0.323990 1.620527 0.270791 -0.124943 0.954466 
0.418371 -0.323990 1.620527 -0.270791 -0.124943 0.954466 
0.808996 -0.245865 1.620527 0.214789 -0.129521 0.968017 
0.387121 -0.245865 1.620527 -0.214789 -0.129521 0.968017 
0.824621 -0.511490 1.620527 0.054933 -0.042543 0.997559 
0.371496 -0.511490 1.620527 -0.054933 -0.042543 0.997559 
0.973058 -0.558365 1.581465 0.205725 -0.055239 0.977020 
0.223058 -0.558365 1.581465 -0.205725 -0.055239 0.977020 
1.074621 -0.519302 1.558027 0.258431 0.017914 0.965850 
0.121496 -0.519302 1.558027 -0.258431 0.017914 0.965850 
1.176183 -0.425552 1.518965 0.192907 -0.017640 0.981048 
0.019933 -0.425552 1.518965 -0.192907 -0.017640 0.981048 
1.183996 -0.331802 1.526777 0.123569 -0.071505 0.989746 
0.012121 -0.331802 1.526777 -0.123569 -0.071505 0.989746 
1.160558 -0.269302 1.534590 0.223121 -0.140843 0.964538 
0.035558 -0.269302 1.534590 -0.223121 -0.140843 0.964538 
1.019933 -0.222427 1.612715 0.169622 -0.118595 0.978332 
0.176183 -0.222427 1.612715 -0.169622 -0.118595 0.978332 
0.933996 -0.191177 1.597090 0.135289 0.017884 0.990631 
0.262121 -0.191177 1.597090 -0.135289 0.017884 0.990631 
0.871496 -0.198990 1.612715 0.201972 -0.018036 0.979217 
0.324621 -0.198990 1.612715 -0.201972 -0.018036 0.979217 
0.832433 -0.261490 1.597090 0.506912 -0.382427 0.772485 
0.879308 -0.222427 1.604902 0.305429 -0.340159 0.889370 
0.363683 -0.261490 1.597090 -0.506912 -0.382427 0.772485 
0.316808 -0.222427 1.604902 -0.305429 -0.340159 0.889370 
0.933996 -0.214615 1.589277 0.014313 -0.486435 0.873562 
0.262121 -0.214615 1.589277 -0.014313 -0.486435 0.873562 
1.012121 -0.230240 1.589277 -0.142277 -0.760186 0.633900 
0.183996 -0.230240 1.589277 0.142277 -0.760186 0.633900 
1.129308 -0.284927 1.518965 -0.204352 -0.598285 0.774773 
0.066808 -0.284927 1.518965 0.204352 -0.598285 0.774773 
1.152746 -0.339615 1.511152 -0.354869 -0.136876 0.924802 
0.043371 -0.339615 1.511152 0.354869 -0.136876 0.924802 
1.144933 -0.409927 1.511152 -0.250740 0.233009 0.939573 
0.051183 -0.409927 1.511152 0.250740 0.233009 0.939573 
1.058996 -0.503677 1.542402 -0.083346 0.541185 0.836726 
0.137121 -0.503677 1.542402 0.083346 0.541185 0.836726 
0.973058 -0.534927 1.565840 0.166387 0.612140 0.773003 
0.223058 -0.534927 1.565840 -0.166387 0.612140 0.773003 
0.840246 -0.495865 1.597090 0.430799 0.558428 0.708884 
0.355871 -0.495865 1.597090 -0.430799 0.558428 0.708884 
0.801183 -0.448990 1.589277 0.663167 0.333995 0.669790 
0.394933 -0.448990 1.589277 -0.663167 0.333995 0.669790 
0.793371 -0.323990 1.597090 0.750908 -0.205786 0.627491 
0.402746 -0.323990 1.597090 -0.750908 -0.205786 0.627491 
0.793371 -0.394302 1.589277 0.804071 0.021607 0.594104 
0.402746 -0.394302 1.589277 -0.804071 0.021607 0.594104 
0.707433 -0.159927 1.448652 -0.572558 0.816126 -0.077975 
0.598058 -0.214615 1.440840 0.000000 0.809076 0.587695 
0.488683 -0.159927 1.448652 0.572558 0.816126 -0.077975 
0.793371 0.043198 1.456465 -0.493667 0.522385 -0.695242 
0.402746 0.043198 1.456465 0.493667 0.522385 -0.695242 
0.933996 0.066635 1.433027 0.072115 0.705863 -0.704611 
0.262121 0.066635 1.433027 -0.072115 0.705863 -0.704611 
1.082433 -0.066177 1.393965 0.294107 0.893826 -0.338389 
0.113683 -0.066177 1.393965 -0.294107 0.893826 -0.338389 
1.277746 -0.167740 1.331465 0.353618 0.907498 -0.226539 
-0.081629 -0.167740 1.331465 -0.353618 0.907498 -0.226539 
1.394933 -0.214615 1.300215 0.737449 0.624439 -0.257271 
-0.198817 -0.214615 1.300215 -0.737449 0.624439 -0.257271 
1.371496 -0.456802 1.214277 0.945067 -0.265664 -0.190283 
-0.175379 -0.456802 1.214277 -0.945067 -0.265664 -0.190283 
1.199621 -0.620865 1.253340 0.598498 -0.793664 -0.108798 
-0.003504 -0.620865 1.253340 -0.598498 -0.793664 -0.108798 
1.035558 -0.714615 1.308027 0.443739 -0.889859 0.105777 
0.160558 -0.714615 1.308027 -0.443739 -0.889859 0.105777 
0.598058 -1.191177 1.159590 0.000000 -0.343272 -0.939207 
0.598058 -1.105240 1.120527 0.000000 -0.844111 -0.536119 
0.777746 -1.034927 1.097090 0.662008 -0.585345 -0.468032 
0.723058 -1.159927 1.198652 0.375225 -0.245033 -0.893918 
0.418371 -1.034927 1.097090 -0.662008 -0.585345 -0.468032 
0.473058 -1.159927 1.198652 -0.375225 -0.245033 -0.893918 
0.598058 -1.425552 1.183027 0.000000 -0.266396 -0.963836 
0.738683 -1.378677 1.206465 0.129063 -0.181158 -0.974914 
0.457433 -1.378677 1.206465 -0.129063 -0.181158 -0.974914 
0.598058 -1.597427 1.300215 0.000000 -0.814783 -0.579730 
0.762121 -1.566177 1.276777 0.095828 -0.758995 -0.643971 
0.433996 -1.566177 1.276777 -0.095828 -0.758995 -0.643971 
0.926183 -1.534927 1.237715 0.486373 -0.547777 -0.680685 
0.269933 -1.534927 1.237715 -0.486373 -0.547777 -0.680685 
0.887121 -1.331802 1.222090 0.621204 -0.013001 -0.783502 
0.308996 -1.331802 1.222090 -0.621204 -0.013001 -0.783502 
0.848058 -1.120865 1.229902 0.773614 0.008057 -0.633595 
0.348058 -1.120865 1.229902 -0.773614 0.008057 -0.633595 
0.832433 -0.972427 1.245527 0.943541 -0.006714 -0.331126 
0.363683 -0.972427 1.245527 -0.943541 -0.006714 -0.331126 
0.816808 -0.902115 1.268965 0.974731 -0.223334 -0.001617 
0.808996 -0.847427 1.308027 0.938414 -0.192114 0.287149 
0.387121 -0.847427 1.308027 -0.938414 -0.192114 0.287149 
0.379308 -0.902115 1.268965 -0.974731 -0.223334 -0.001617 
0.801183 -0.792740 1.339277 0.793970 -0.573138 0.202643 
0.394933 -0.792740 1.339277 -0.793970 -0.573138 0.202643 
0.598058 -0.550552 0.011152 0.000000 -0.322214 -0.946654 
0.933996 -0.566177 0.175215 0.434828 -0.332621 -0.836787 
0.941808 -0.769302 0.300215 0.498337 -0.624256 -0.601581 
0.598058 -0.816177 0.167402 0.000000 -0.717124 -0.696921 
0.254308 -0.769302 0.300215 -0.498337 -0.624256 -0.601581 
0.262121 -0.566177 0.175215 -0.434828 -0.332621 -0.836787 
0.894933 -0.933365 0.573652 0.531236 -0.819056 -0.216529 
0.598058 -1.003677 0.487715 0.000000 -0.948454 -0.316874 
0.301183 -0.933365 0.573652 -0.531236 -0.819056 -0.216529 
0.808996 -1.011490 1.003340 0.659932 -0.751091 -0.017396 
0.598058 -1.081802 1.026777 0.000000 -0.986755 -0.162084 
0.387121 -1.011490 1.003340 -0.659932 -0.751091 -0.017396 
1.332433 -0.667740 0.909590 0.697653 -0.714530 0.051790 
1.449621 -0.386490 0.893965 0.981597 -0.158544 0.106326 
-0.136317 -0.667740 0.909590 -0.697653 -0.714530 0.051790 
-0.253504 -0.386490 0.893965 -0.981597 -0.158544 0.106326 
0.598058 -0.058365 -0.012285 0.000000 0.277841 -0.960601 
1.058996 -0.183365 0.136152 0.456893 0.171026 -0.872890 
0.137121 -0.183365 0.136152 -0.456893 0.171026 -0.872890 
0.598058 0.277573 1.128340 0.000000 0.832881 0.553423 
1.051183 0.230698 1.073652 0.499496 0.723777 0.476028 
1.051183 0.308823 0.768965 0.431349 0.902127 0.007294 
0.598058 0.363510 0.761152 0.000000 0.999634 0.025941 
0.144933 0.308823 0.768965 -0.431349 0.902127 0.007294 
0.144933 0.230698 1.073652 -0.499496 0.723777 0.476028 
1.051183 0.246323 0.456465 0.438551 0.747093 -0.499496 
0.598058 0.277573 0.292402 0.000000 0.865200 -0.501358 
0.144933 0.246323 0.456465 -0.438551 0.747093 -0.499496 
1.324621 -0.214615 1.175215 0.769982 0.576373 0.273629 
1.230871 -0.167740 1.120527 0.480514 0.835902 0.265175 
-0.128504 -0.214615 1.175215 -0.769982 0.576373 0.273629 
-0.034754 -0.167740 1.120527 -0.480514 0.835902 0.265175 
1.394933 -0.058365 0.964277 0.794794 0.516495 0.318583 
1.238683 0.082260 0.893965 0.600909 0.684317 0.413007 
-0.198817 -0.058365 0.964277 -0.794794 0.516495 0.318583 
-0.042567 0.082260 0.893965 -0.600909 0.684317 0.413007 
1.394933 -0.003677 0.722090 0.888424 0.455214 -0.058870 
1.238683 0.129135 0.643965 0.679067 0.733848 -0.017182 
-0.198817 -0.003677 0.722090 -0.888424 0.455214 -0.058870 
-0.042567 0.129135 0.643965 -0.679067 0.733848 -0.017182 
1.394933 -0.081802 0.479902 0.864467 0.333537 -0.376049 
1.238683 0.058823 0.393965 0.671163 0.551592 -0.495224 
-0.198817 -0.081802 0.479902 -0.864467 0.333537 -0.376049 
-0.042567 0.058823 0.393965 -0.671163 0.551592 -0.495224 
1.371496 -0.355240 0.401777 0.634968 0.106082 -0.765191 
1.215246 -0.292740 0.253340 0.587725 0.009552 -0.808985 
-0.019129 -0.292740 0.253340 -0.587725 0.009552 -0.808985 
-0.175379 -0.355240 0.401777 -0.634968 0.106082 -0.765191 
1.058996 -0.097427 1.268965 0.386578 0.804682 0.450514 
0.137121 -0.097427 1.268965 -0.386578 0.804682 0.450514 
0.598058 -0.050552 1.409590 0.000000 0.612903 0.790124 
1.457433 -0.300552 0.792402 0.989715 -0.139927 -0.029237 
-0.261317 -0.300552 0.792402 -0.989715 -0.139927 -0.029237 
1.418371 -0.292740 0.636152 0.896573 0.322764 0.303201 
-0.222254 -0.292740 0.636152 -0.896573 0.322764 0.303201 
1.027746 -0.816177 0.628340 0.557421 -0.816828 -0.148412 
1.004308 -0.792740 0.987715 0.585223 -0.792230 0.172735 
0.168371 -0.816177 0.628340 -0.557421 -0.816828 -0.148412 
0.191808 -0.792740 0.987715 -0.585223 -0.792230 0.172735 
1.191808 -0.745865 0.675215 0.299722 -0.952116 0.060244 
0.004308 -0.745865 0.675215 -0.299722 -0.952116 0.060244 
1.238683 -0.628677 0.409590 0.339183 -0.665212 -0.665120 
1.082433 -0.597427 0.292402 0.549120 -0.534593 -0.642354 
0.113683 -0.597427 0.292402 -0.549120 -0.534593 -0.642354 
-0.042567 -0.628677 0.409590 -0.339183 -0.665212 -0.665120 
1.621496 -0.144302 0.526777 0.044588 0.869655 0.491592 
1.488683 -0.214615 0.604902 -0.279061 0.732902 0.620441 
1.519933 -0.261490 0.620527 0.491043 -0.096927 0.865688 
1.613683 -0.206802 0.550215 0.546281 -0.129246 0.827540 
-0.323817 -0.261490 0.620527 -0.491043 -0.096927 0.865688 
-0.292567 -0.214615 0.604902 0.279061 0.732902 0.620441 
-0.425379 -0.144302 0.526777 -0.044588 0.869655 0.491592 
-0.417567 -0.206802 0.550215 -0.546281 -0.129246 0.827540 
1.785558 -0.183365 0.448652 0.188543 -0.189062 0.963683 
1.832433 -0.113052 0.417402 0.491928 0.655202 0.573290 
-0.589442 -0.183365 0.448652 -0.188543 -0.189062 0.963683 
-0.636317 -0.113052 0.417402 -0.491928 0.655202 0.573290 
1.863683 -0.331802 0.433027 -0.255715 -0.030763 0.966247 
1.949621 -0.300552 0.417402 0.720420 0.100833 0.686117 
-0.667567 -0.331802 0.433027 0.255715 -0.030763 0.966247 
-0.753504 -0.300552 0.417402 -0.720420 0.100833 0.686117 
1.808996 -0.542740 0.433027 -0.127598 0.304697 0.943846 
1.879308 -0.566177 0.409590 0.653920 -0.383831 0.651936 
-0.612879 -0.542740 0.433027 0.127598 0.304697 0.943846 
-0.683192 -0.566177 0.409590 -0.653920 -0.383831 0.651936 
1.629308 -0.659927 0.534590 0.398724 0.353282 0.846278 
1.637121 -0.722427 0.511152 0.528459 -0.698935 0.481826 
-0.433192 -0.659927 0.534590 -0.398724 0.353282 0.846278 
-0.441004 -0.722427 0.511152 -0.528459 -0.698935 0.481826 
1.426183 -0.691177 0.706465 0.301370 0.491226 0.817194 
1.371496 -0.761490 0.714277 0.118107 -0.827113 0.549455 
-0.230067 -0.691177 0.706465 -0.301370 0.491226 0.817194 
-0.175379 -0.761490 0.714277 -0.118107 -0.827113 0.549455 
1.637121 -0.620865 0.472090 -0.128025 0.955870 0.264290 
1.480871 -0.644302 0.628340 0.124271 0.948576 0.291025 
-0.284754 -0.644302 0.628340 -0.124271 0.948576 0.291025 
-0.441004 -0.620865 0.472090 0.128025 0.955870 0.264290 
1.785558 -0.527115 0.393965 -0.765404 0.638997 0.075961 
-0.589442 -0.527115 0.393965 0.765404 0.638997 0.075961 
1.832433 -0.370865 0.393965 -0.974761 -0.128391 0.182592 
-0.636317 -0.370865 0.393965 0.974761 -0.128391 0.182592 
1.769933 -0.261490 0.401777 -0.217933 -0.804041 0.553178 
-0.573817 -0.261490 0.401777 0.217933 -0.804041 0.553178 
1.621496 -0.277115 0.479902 0.533250 -0.679800 0.503464 
-0.425379 -0.277115 0.479902 -0.533250 -0.679800 0.503464 
1.543371 -0.316177 0.550215 0.680013 -0.575915 0.453719 
-0.347254 -0.316177 0.550215 -0.680013 -0.575915 0.453719 
1.316808 -0.644302 0.667402 0.762413 0.144871 0.630634 
1.324621 -0.620865 0.768965 0.915250 -0.380810 -0.131382 
-0.120692 -0.644302 0.667402 -0.762413 0.144871 0.630634 
-0.128504 -0.620865 0.768965 -0.915250 -0.380810 -0.131382 
1.441808 -0.331802 0.628340 0.675344 -0.259835 0.690176 
-0.245692 -0.331802 0.628340 -0.675344 -0.259835 0.690176 
1.410558 -0.636490 0.565840 0.640858 0.506882 0.576434 
-0.214442 -0.636490 0.565840 -0.640858 0.506882 0.576434 
1.441808 -0.605240 0.565840 0.842280 -0.009583 0.538896 
1.316808 -0.581802 0.651777 0.906796 -0.122990 0.403150 
-0.120692 -0.581802 0.651777 -0.906796 -0.122990 0.403150 
-0.245692 -0.605240 0.565840 -0.842280 -0.009583 0.538896 
1.355871 -0.527115 0.565840 0.868496 0.110019 0.483291 
1.418371 -0.534927 0.565840 0.617298 0.711081 0.336528 
-0.159754 -0.527115 0.565840 -0.868496 0.110019 0.483291 
-0.222254 -0.534927 0.565840 -0.617298 0.711081 0.336528 
1.433996 -0.448990 0.565840 0.748192 -0.574877 0.331187 
1.394933 -0.417740 0.628340 0.886258 -0.398785 0.235572 
-0.198817 -0.417740 0.628340 -0.886258 -0.398785 0.235572 
-0.237879 -0.448990 0.565840 -0.748192 -0.574877 0.331187 
1.488683 -0.378677 0.573652 0.706351 -0.552843 0.441969 
-0.292567 -0.378677 0.573652 -0.706351 -0.552843 0.441969 
1.488683 -0.386490 0.518965 0.646474 -0.403150 0.647664 
1.551183 -0.331802 0.495527 0.631062 -0.332835 0.700674 
-0.292567 -0.386490 0.518965 -0.646474 -0.403150 0.647664 
-0.355067 -0.331802 0.495527 -0.631062 -0.332835 0.700674 
1.441808 -0.448990 0.518965 0.573321 -0.437483 0.692709 
-0.245692 -0.448990 0.518965 -0.573321 -0.437483 0.692709 
1.363683 -0.527115 0.518965 0.654530 0.185125 0.732963 
-0.167567 -0.527115 0.518965 -0.654530 0.185125 0.732963 
1.426183 -0.542740 0.518965 0.476058 0.474563 0.740349 
-0.230067 -0.542740 0.518965 -0.476058 0.474563 0.740349 
1.449621 -0.605240 0.518965 0.606159 0.136204 0.783563 
-0.253504 -0.605240 0.518965 -0.606159 0.136204 0.783563 
1.410558 -0.636490 0.518965 0.234077 0.767602 0.596637 
-0.214442 -0.636490 0.518965 -0.234077 0.767602 0.596637 
1.480871 -0.636490 0.573652 0.064241 0.870754 0.487472 
-0.284754 -0.636490 0.573652 -0.064241 0.870754 0.487472 
1.637121 -0.292740 0.425215 0.531968 -0.252754 0.808130 
-0.441004 -0.292740 0.425215 -0.531968 -0.252754 0.808130 
1.785558 -0.277115 0.354902 0.145665 -0.307749 0.940245 
-0.589442 -0.277115 0.354902 -0.145665 -0.307749 0.940245 
1.855871 -0.378677 0.347090 -0.553941 -0.194433 0.809503 
-0.659754 -0.378677 0.347090 0.553941 -0.194433 0.809503 
1.808996 -0.534927 0.354902 -0.365886 0.500015 0.784906 
-0.612879 -0.534927 0.354902 0.365886 0.500015 0.784906 
1.644933 -0.620865 0.417402 0.204718 0.726096 0.656362 
-0.448817 -0.620865 0.417402 -0.204718 0.726096 0.656362 
1.535558 -0.558365 0.503340 0.211005 0.236152 0.948515 
1.488683 -0.511490 0.511152 0.199469 0.003967 0.979888 
-0.339442 -0.558365 0.503340 -0.211005 0.236152 0.948515 
-0.292567 -0.511490 0.511152 -0.199469 0.003967 0.979888 
1.598058 -0.495865 0.472090 0.436354 -0.019593 0.899533 
1.558996 -0.448990 0.487715 0.325327 -0.001740 0.945585 
-0.401942 -0.495865 0.472090 -0.436354 -0.019593 0.899533 
-0.362879 -0.448990 0.487715 -0.325327 -0.001740 0.945585 
1.652746 -0.433365 0.456465 0.365734 -0.092502 0.926084 
1.613683 -0.386490 0.464277 0.311930 0.076144 0.947020 
-0.456629 -0.433365 0.456465 -0.365734 -0.092502 0.926084 
-0.417567 -0.386490 0.464277 -0.311930 0.076144 0.947020 
1.707433 -0.409927 0.448652 0.416211 0.026002 0.908872 
1.683996 -0.347427 0.448652 0.346782 0.297983 0.889309 
-0.511317 -0.409927 0.448652 -0.416211 0.026002 0.908872 
-0.487879 -0.347427 0.448652 -0.346782 0.297983 0.889309 
1.387121 -0.745865 0.511152 -0.050844 -0.722861 -0.689077 
1.637121 -0.706802 0.347090 -0.050600 -0.705344 -0.707022 
-0.191004 -0.745865 0.511152 0.050844 -0.722861 -0.689077 
-0.441004 -0.706802 0.347090 0.050600 -0.705344 -0.707022 
1.910558 -0.566177 0.308027 0.642445 -0.435224 -0.630696 
-0.714442 -0.566177 0.308027 -0.642445 -0.435224 -0.630696 
1.965246 -0.323990 0.339277 0.945433 0.138951 -0.294656 
-0.769129 -0.323990 0.339277 -0.945433 0.138951 -0.294656 
1.848058 -0.152115 0.292402 0.295114 0.535020 -0.791589 
-0.651942 -0.152115 0.292402 -0.295114 0.535020 -0.791589 
1.621496 -0.183365 0.354902 -0.445540 0.562609 -0.696371 
-0.425379 -0.183365 0.354902 0.445540 0.562609 -0.696371 
1.457433 -0.238052 0.456465 -0.489364 0.514664 -0.703970 
-0.261317 -0.238052 0.456465 0.489364 0.514664 -0.703970 
4 0 1 2 3 
4 4 5 6 7 
4 3 2 8 9 
4 10 4 7 11 
4 2 12 13 8 
4 14 15 4 10 
4 1 16 12 2 
4 15 17 5 4 
4 16 18 19 12 
4 20 21 17 15 
4 12 19 22 13 
4 23 20 15 14 
4 19 24 25 22 
4 26 27 20 23 
4 18 28 24 19 
4 27 29 21 20 
4 28 30 31 24 
4 32 33 29 27 
4 24 31 34 25 
4 35 32 27 26 
4 31 36 37 34 
4 38 39 32 35 
4 30 40 36 31 
4 39 41 33 32 
4 40 42 43 36 
4 44 45 41 39 
4 36 43 46 37 
4 47 44 39 38 
4 43 3 9 46 
4 11 7 44 47 
4 42 0 3 43 
4 7 6 45 44 
4 0 42 48 49 
4 50 45 6 51 
4 42 40 52 48 
4 53 41 45 50 
4 40 30 54 52 
4 55 33 41 53 
4 30 28 56 54 
4 57 29 33 55 
4 28 18 58 56 
4 59 21 29 57 
4 18 16 60 58 
4 61 17 21 59 
4 16 1 62 60 
4 63 5 17 61 
4 1 0 49 62 
4 51 6 5 63 
3 64 62 49 
3 51 63 65 
3 60 62 64 
3 65 63 61 
3 64 58 60 
3 61 59 65 
3 64 56 58 
3 59 57 65 
3 64 54 56 
3 57 55 65 
3 64 52 54 
3 55 53 65 
3 64 48 52 
3 53 50 65 
3 64 49 48 
3 50 51 65 
4 66 67 68 69 
4 68 70 71 69 
4 72 73 67 66 
4 70 74 75 71 
4 76 77 73 72 
4 74 78 79 75 
4 80 81 77 76 
4 78 82 83 79 
4 84 85 81 80 
4 82 86 87 83 
4 88 89 90 91 
4 92 93 94 95 
4 89 96 97 90 
4 98 99 93 92 
4 96 100 101 97 
4 102 103 99 98 
4 100 104 105 101 
4 106 107 103 102 
4 104 108 109 105 
4 110 111 107 106 
4 108 112 113 109 
4 114 115 111 110 
4 112 116 117 113 
4 118 119 115 114 
4 116 120 121 117 
4 122 123 119 118 
4 120 124 125 121 
4 126 127 123 122 
4 124 128 129 125 
4 129 128 127 126 
4 130 131 121 125 
4 122 132 133 126 
4 131 134 117 121 
4 118 135 132 122 
4 136 113 117 134 
4 118 114 137 135 
4 138 109 113 136 
4 114 110 139 137 
4 140 105 109 138 
4 110 106 141 139 
4 142 101 105 140 
4 106 102 143 141 
4 144 97 101 142 
4 102 98 145 143 
4 146 90 97 144 
4 98 92 147 145 
4 148 91 90 146 
4 92 95 149 147 
4 148 150 151 91 
4 151 152 149 95 
4 130 125 129 153 
4 129 126 133 154 
4 153 129 155 156 
4 155 129 154 157 
4 151 150 156 155 
4 157 152 151 155 
4 158 159 68 67 
4 68 159 160 70 
4 161 158 67 73 
4 70 160 162 74 
4 163 161 73 77 
4 74 162 164 78 
4 85 165 166 81 
4 167 168 86 82 
4 163 77 81 166 
4 82 78 164 167 
4 169 170 171 165 
4 171 170 172 168 
4 166 165 171 173 
4 171 168 167 173 
4 174 163 166 173 
4 167 164 174 173 
4 175 176 177 169 
4 178 179 180 172 
4 181 182 176 175 
4 179 183 184 180 
4 185 186 182 181 
4 183 187 185 184 
4 188 189 186 185 
4 187 189 188 185 
4 170 169 177 190 
4 178 172 170 190 
4 190 177 191 192 
4 193 178 190 192 
4 189 194 195 186 
4 196 194 189 187 
4 186 195 197 182 
4 198 196 187 183 
4 182 197 199 176 
4 200 198 183 179 
4 176 199 191 177 
4 193 200 179 178 
4 194 199 197 195 
4 198 200 194 196 
4 194 192 191 199 
4 193 192 194 200 
4 185 181 91 151 
4 95 184 185 151 
4 181 175 201 91 
4 202 180 184 95 
4 175 169 203 201 
4 204 172 180 202 
4 169 165 85 203 
4 86 168 172 204 
4 84 205 203 85 
4 204 206 87 86 
4 205 207 201 203 
4 202 208 206 204 
4 88 91 201 207 
4 202 95 94 208 
4 163 174 209 210 
4 209 174 164 211 
4 161 163 210 212 
4 211 164 162 213 
4 158 161 212 214 
4 213 162 160 215 
4 159 158 214 216 
4 215 160 159 216 
4 216 214 217 218 
4 219 215 216 218 
4 214 212 220 217 
4 221 213 215 219 
4 212 210 222 220 
4 223 211 213 221 
4 210 209 224 222 
4 224 209 211 223 
4 224 218 217 222 
4 219 218 224 223 
3 222 217 220 
3 221 219 223 
4 156 150 225 226 
4 227 152 157 228 
4 153 156 226 229 
4 228 157 154 230 
4 130 153 229 231 
4 230 154 133 232 
4 150 148 233 225 
4 234 149 152 227 
4 148 146 235 233 
4 236 147 149 234 
4 146 144 237 235 
4 238 145 147 236 
4 144 142 239 237 
4 240 143 145 238 
4 142 140 241 239 
4 242 141 143 240 
4 140 138 243 241 
4 244 139 141 242 
4 138 136 245 243 
4 246 137 139 244 
4 136 134 247 245 
4 248 135 137 246 
4 134 131 249 247 
4 250 132 135 248 
4 131 130 231 249 
4 232 133 132 250 
4 249 231 251 252 
4 253 232 250 254 
4 247 249 252 255 
4 254 250 248 256 
4 245 247 255 257 
4 256 248 246 258 
4 243 245 257 259 
4 258 246 244 260 
4 241 243 259 261 
4 260 244 242 262 
4 239 241 261 263 
4 262 242 240 264 
4 237 239 263 265 
4 264 240 238 266 
4 235 237 265 267 
4 266 238 236 268 
4 233 235 267 269 
4 268 236 234 270 
4 225 233 269 271 
4 270 234 227 272 
4 231 229 273 251 
4 274 230 232 253 
4 229 226 275 273 
4 276 228 230 274 
4 226 225 271 275 
4 272 227 228 276 
4 128 124 277 278 
4 279 127 128 278 
4 124 120 280 277 
4 281 123 127 279 
4 120 116 282 280 
4 283 119 123 281 
4 116 112 284 282 
4 285 115 119 283 
4 112 108 286 284 
4 287 111 115 285 
4 108 104 288 286 
4 289 107 111 287 
4 104 100 290 288 
4 291 103 107 289 
4 100 96 292 290 
4 293 99 103 291 
4 96 89 294 292 
4 295 93 99 293 
4 296 297 298 299 
4 300 297 296 301 
4 302 296 299 303 
4 301 296 302 304 
4 305 302 303 306 
4 304 302 305 307 
4 66 69 305 306 
4 305 69 71 307 
4 72 66 306 308 
4 307 71 75 309 
4 76 72 308 310 
4 309 75 79 311 
4 80 76 310 312 
4 311 79 83 313 
4 310 303 299 312 
4 301 304 311 313 
4 310 308 306 303 
4 307 309 311 304 
4 314 312 299 298 
4 301 313 315 300 
4 84 80 312 314 
4 313 83 87 315 
4 205 316 317 207 
4 318 319 206 208 
4 84 314 316 205 
4 319 315 87 206 
4 88 207 317 320 
4 318 208 94 321 
4 88 320 294 89 
4 295 321 94 93 
4 322 323 324 325 
4 326 327 322 325 
4 325 324 328 329 
4 330 326 325 329 
4 329 328 331 332 
4 333 330 329 332 
4 332 331 298 297 
4 300 333 332 297 
4 314 298 331 316 
4 333 300 315 319 
4 290 292 334 335 
4 336 293 291 337 
4 338 339 323 322 
4 327 340 338 322 
4 341 342 343 344 
4 345 346 341 344 
4 344 343 347 348 
4 349 345 344 348 
4 348 347 339 338 
4 340 349 348 338 
4 286 288 350 351 
4 352 289 287 353 
4 351 350 354 355 
4 356 352 353 357 
4 355 354 358 359 
4 360 356 357 361 
4 359 358 362 363 
4 364 360 361 365 
4 366 367 363 362 
4 365 368 369 364 
4 339 347 363 367 
4 365 349 340 368 
4 347 343 359 363 
4 361 345 349 365 
4 343 342 355 359 
4 357 346 345 361 
4 342 370 351 355 
4 353 371 346 357 
4 284 286 351 370 
4 353 287 285 371 
4 372 370 342 341 
4 346 371 372 341 
4 277 280 282 284 
4 283 281 279 285 
4 277 284 370 372 
4 371 285 279 372 
3 278 277 372 
3 372 279 278 
4 288 290 335 350 
4 337 291 289 352 
4 335 373 354 350 
4 356 374 337 352 
4 373 375 358 354 
4 360 376 374 356 
4 366 362 358 375 
4 360 364 369 376 
4 331 328 377 378 
4 379 330 333 380 
4 334 378 377 381 
4 379 380 336 382 
4 292 294 378 334 
4 380 295 293 336 
4 294 317 316 378 
4 319 318 295 380 
3 316 331 378 
3 380 333 319 
3 294 320 317 
3 318 321 295 
4 366 383 384 367 
4 385 386 369 368 
4 339 367 384 323 
4 385 368 340 327 
4 381 377 384 383 
4 385 379 382 386 
4 328 324 384 377 
4 385 326 330 379 
3 323 384 324 
3 326 385 327 
4 387 388 389 390 
4 391 392 393 394 
4 387 390 395 396 
4 397 394 393 398 
4 396 395 399 400 
4 401 397 398 402 
4 400 399 403 404 
4 405 401 402 406 
4 404 403 407 408 
4 409 405 406 410 
4 408 407 411 412 
4 413 409 410 414 
4 407 415 416 411 
4 417 418 409 413 
4 403 419 415 407 
4 418 420 405 409 
4 399 421 419 403 
4 420 422 401 405 
4 395 423 421 399 
4 422 424 397 401 
4 390 425 423 395 
4 424 426 394 397 
4 390 389 427 425 
4 428 391 394 426 
4 334 381 429 430 
4 431 382 336 432 
4 381 412 411 429 
4 413 414 382 431 
4 335 334 430 373 
4 432 336 337 374 
4 375 433 389 388 
4 391 434 376 392 
4 411 416 435 429 
4 436 417 413 431 
4 437 438 429 435 
4 431 439 440 436 
4 441 438 437 442 
4 440 439 443 444 
4 445 446 438 441 
4 439 447 448 443 
4 433 446 445 449 
4 448 447 434 450 
4 389 433 449 427 
4 450 434 391 428 
4 373 446 433 375 
4 434 447 374 376 
4 373 430 438 446 
4 439 432 374 447 
3 430 429 438 
3 439 431 432 
4 427 449 451 452 
4 453 450 428 454 
4 449 445 455 451 
4 456 448 450 453 
4 445 441 457 455 
4 458 443 448 456 
4 441 442 459 457 
4 460 444 443 458 
4 442 437 461 459 
4 462 440 444 460 
4 437 435 463 461 
4 464 436 440 462 
4 435 416 465 463 
4 466 417 436 464 
4 425 427 452 467 
4 454 428 426 468 
4 423 425 467 469 
4 468 426 424 470 
4 421 423 469 471 
4 470 424 422 472 
4 419 421 471 473 
4 472 422 420 474 
4 415 419 473 475 
4 474 420 418 476 
4 416 415 475 465 
4 476 418 417 466 
4 459 461 477 478 
4 479 462 460 480 
4 478 477 481 482 
4 483 479 480 484 
4 482 481 485 486 
4 487 483 484 488 
4 486 485 489 490 
4 491 487 488 492 
4 467 452 486 490 
4 488 454 468 492 
4 451 482 486 452 
4 488 484 453 454 
4 451 455 478 482 
4 480 456 453 484 
4 459 478 455 457 
4 456 480 460 458 
4 463 465 477 461 
4 479 466 464 462 
4 475 481 477 465 
4 479 483 476 466 
4 473 485 481 475 
4 483 487 474 476 
4 471 489 485 473 
4 487 491 472 474 
4 469 490 489 471 
4 491 492 470 472 
3 467 490 469 
3 470 492 468 
4 408 412 493 494 
4 495 414 410 496 
4 404 408 494 497 
4 496 410 406 498 
4 400 404 497 499 
4 498 406 402 500 
4 396 400 499 501 
4 500 402 398 502 
4 387 396 501 503 
4 502 398 393 504 
4 388 387 503 505 
4 504 393 392 506 
4 503 494 493 505 
4 495 496 504 506 
4 503 501 497 494 
4 498 502 504 496 
3 501 499 497 
3 498 500 502 
4 366 375 388 505 
4 392 376 369 506 
4 366 505 493 383 
4 495 506 369 386 
4 381 383 493 412 
4 495 386 382 414 
