solid Untitled-54750635
facet normal 0.0 1.0 0.0
  outer loop
    vertex -0.49999999999999994 -0.49999999999999994 1.0000000000000095
    vertex 0.49999999999997563 -0.49999999999999994 0.0
    vertex -0.49999999999999994 -0.49999999999999994 0.0
  endloop
endfacet
facet normal 0.0 1.0 0.0
  outer loop
    vertex 0.49999999999997563 -0.49999999999999994 0.0
    vertex -0.49999999999999994 -0.49999999999999994 1.0000000000000095
    vertex 0.49999999999997563 -0.49999999999999994 1.0000000000000095
  endloop
endfacet
facet normal 1.0 0.0 0.0
  outer loop
    vertex -0.49999999999999994 0.4999999999999869 0.0
    vertex -0.49999999999999994 -0.49999999999999994 1.0000000000000095
    vertex -0.49999999999999994 -0.49999999999999994 0.0
  endloop
endfacet
facet normal 1.0 0.0 0.0
  outer loop
    vertex -0.49999999999999994 -0.49999999999999994 1.0000000000000095
    vertex -0.49999999999999994 0.4999999999999869 0.0
    vertex -0.49999999999999994 0.4999999999999869 1.0000000000000095
  endloop
endfacet
facet normal 0.0 -1.0 0.0
  outer loop
    vertex 0.49999999999997563 0.4999999999999869 1.0000000000000095
    vertex -0.49999999999999994 0.4999999999999869 0.0
    vertex 0.49999999999997563 0.4999999999999869 0.0
  endloop
endfacet
facet normal 0.0 -1.0 0.0
  outer loop
    vertex -0.49999999999999994 0.4999999999999869 0.0
    vertex 0.49999999999997563 0.4999999999999869 1.0000000000000095
    vertex -0.49999999999999994 0.4999999999999869 1.0000000000000095
  endloop
endfacet
facet normal 0.0 0.0 1.0
  outer loop
    vertex 0.49999999999997563 -0.49999999999999994 0.0
    vertex -0.49999999999999994 0.4999999999999869 0.0
    vertex -0.49999999999999994 -0.49999999999999994 0.0
  endloop
endfacet
facet normal 0.0 0.0 1.0
  outer loop
    vertex -0.49999999999999994 0.4999999999999869 0.0
    vertex 0.49999999999997563 -0.49999999999999994 0.0
    vertex 0.49999999999997563 0.4999999999999869 0.0
  endloop
endfacet
facet normal 0.0 0.0 -1.0
  outer loop
    vertex 0.49999999999997563 0.4999999999999869 1.0000000000000095
    vertex -0.49999999999999994 -0.49999999999999994 1.0000000000000095
    vertex -0.49999999999999994 0.4999999999999869 1.0000000000000095
  endloop
endfacet
facet normal 0.0 0.0 -1.0
  outer loop
    vertex -0.49999999999999994 -0.49999999999999994 1.0000000000000095
    vertex 0.49999999999997563 0.4999999999999869 1.0000000000000095
    vertex 0.49999999999997563 -0.49999999999999994 1.0000000000000095
  endloop
endfacet
facet normal -1.0 0.0 0.0
  outer loop
    vertex 0.49999999999997563 0.4999999999999869 1.0000000000000095
    vertex 0.49999999999997563 -0.49999999999999994 0.0
    vertex 0.49999999999997563 -0.49999999999999994 1.0000000000000095
  endloop
endfacet
facet normal -1.0 0.0 0.0
  outer loop
    vertex 0.49999999999997563 -0.49999999999999994 0.0
    vertex 0.49999999999997563 0.4999999999999869 1.0000000000000095
    vertex 0.49999999999997563 0.4999999999999869 0.0
  endloop
endfacet
endsolid Untitled-54750635
